<svg width="100" height="63" viewBox="0 0 100 63" fill="none" xmlns="http://www.w3.org/2000/svg">
<path fill-rule="evenodd" clip-rule="evenodd" d="M44.385 23.5097C44.4913 23.27 44.6313 22.9517 44.8113 22.5684C46.62 22.5684 49.0988 23.0952 52.1112 24.149C51.1737 27.3076 50.3713 30.5349 49.7675 33.9582C49.165 37.3815 48.8975 39.8173 48.8975 41.2656C48.8975 42.7138 49.0313 43.4379 49.3663 43.4379C49.5663 43.4379 50.4375 43.1096 51.9113 42.3842L52.5812 42.0558L53.6525 44.0309C53.46 44.2207 53.2213 44.4105 52.9513 44.6264C52.7538 44.7838 52.5388 44.9548 52.3138 45.1508C51.7763 45.6102 50.7063 46.2033 49.165 46.9936C47.625 47.7838 46.2175 48.1784 45.0125 48.1784C42.6 48.1784 41.1938 47.1246 40.8588 45.0185C38.3813 47.1246 36.1713 48.1771 34.1613 48.1771C32.1513 48.1771 30.4775 47.453 29.1363 45.9398C27.7313 44.4254 27.0613 42.0558 27.0613 38.8298C26.9263 33.6948 27.9988 29.6785 30.1425 26.782C32.285 23.8855 34.83 22.3711 37.845 22.3711C39.9888 22.3711 42.1325 22.9629 44.1413 24.0166C44.1788 23.9804 44.2563 23.8044 44.385 23.5097ZM37.51 43.3068C38.4475 43.3068 39.4525 42.9772 40.6588 42.2531C40.9263 36.9209 41.8638 31.6535 43.405 26.4524C42.2663 25.9917 41.2613 25.7283 40.4575 25.7283C39.0513 25.7283 37.845 27.0454 36.9075 29.7446C35.9025 32.3789 35.4325 35.3403 35.4325 38.5663C35.4325 41.7924 36.0363 43.3068 37.51 43.3068ZM65.375 27.6384C65.375 25.531 64.9063 24.0828 64.1025 23.4236C63.2988 22.6995 62.0262 22.3711 60.3512 22.5684C58.61 22.5684 56.7338 22.898 54.6575 23.5559L54.4575 24.2139C54.925 24.6758 55.3275 25.3338 55.7963 26.189C56.265 27.0454 56.4663 27.7695 56.4663 28.3613C56.4663 31.0605 56.3325 33.761 56.0638 36.4589C55.7963 39.1594 55.6625 41.3317 55.6625 42.911C55.6625 44.4916 56.1313 45.8075 57.0025 46.795C57.8725 47.7826 59.145 48.2433 60.7525 48.2433C63.2988 48.2433 65.8438 47.0585 68.39 44.755C70.8675 42.3842 72.8775 39.5539 74.4175 36.2617C75.9575 32.9045 76.695 29.7446 76.695 26.782C76.7007 26.2172 76.5908 25.6572 76.372 25.1363C76.1531 24.6155 75.83 24.1448 75.4225 23.7532C74.6188 22.898 73.345 22.4373 71.6713 22.4373L70.8675 23.1614C70.265 23.687 69.6613 24.6096 68.9925 25.9255C68.3225 27.2427 67.92 28.6909 67.7863 30.3364L71.7375 34.6162C71.6712 36.0644 70.7337 37.7761 68.9912 39.9484C67.25 42.1208 65.6425 43.1745 64.1688 43.1745C63.5662 43.1745 63.2313 42.4504 63.2313 40.936C63.2313 40.1457 63.6338 38.0395 64.3025 34.55C65.04 31.0605 65.375 28.7583 65.375 27.6384ZM77.365 37.645C77.365 32.9045 78.8387 29.2178 81.7188 26.4524C84.5987 23.687 87.9475 22.3699 91.6987 22.3699C93.9763 22.3699 95.8513 22.898 97.325 24.0179C98.8 25.1365 99.5362 26.5847 99.5362 28.4275C99.5362 30.2715 99.0662 31.7859 98.1287 33.0356C97.1912 34.2866 96.0538 35.2741 94.6463 35.9321C91.9 37.2492 89.355 38.1044 87.0775 38.4353L85.7375 38.5663C86.005 42.122 87.4787 43.8986 90.225 43.8986C91.1625 43.8986 92.1675 43.7013 93.1725 43.2406C94.2438 42.7787 95.0475 42.3193 95.585 41.8586L96.455 41.1994L97.8612 43.0434C97.5262 43.4379 96.9237 44.0297 95.9862 44.6889C95.0487 45.3468 94.1775 45.9398 93.3737 46.4005C91.0962 47.5866 88.685 48.2445 86.005 48.2445C83.3263 48.2445 81.25 47.3219 79.6425 45.4792C78.1012 43.5041 77.365 40.936 77.365 37.645ZM92.1012 28.3626C92.1012 30.4026 91.4975 32.1142 90.3588 33.3652C89.2213 34.6823 87.6125 35.4726 85.6038 35.801C85.6038 33.6286 86.005 31.3901 86.8087 28.9543C87.6125 26.5198 88.7513 25.3338 90.225 25.3338C91.4975 25.3338 92.1012 26.32 92.1012 28.3626Z" fill="#DE206A"/>
<path d="M24.1125 8.5456C22.7075 8.01874 21.3 8.34834 20.965 11.4421C20.7793 14.4935 20.5785 17.544 20.3625 20.5934C24.9175 20.33 27.7975 21.712 27.7975 21.712L27.6637 23.6871C25.4538 23.0292 22.7738 23.1603 20.095 23.556C18.5538 41.7925 16.4775 47.5854 16.4775 47.5854C16.4775 47.5854 13.7987 56.5395 5.35875 56.2748C0.33375 56.2761 0 52.7866 0 52.7866L1.74125 51.7329C1.74125 51.7329 4.55375 57.8554 7.63625 50.9438C9.51125 46.8613 11.2525 34.8135 12.3913 25.6622C10.5726 26.3029 8.78488 27.0278 7.03375 27.8345L6.09625 25.9256C8.44 24.2152 10.7175 22.963 12.8612 22.174C13.3962 17.6308 13.7312 14.4047 13.7312 14.4047C13.7312 14.4047 14.87 5.64914 23.31 5.91257C23.5775 5.91257 23.8463 5.91257 24.1138 5.97749C24.1138 5.97749 29.4725 6.17599 30.745 10.3884C30.6112 11.8366 28.735 13.351 28.2 13.4833C25.3875 12.4958 24.1125 11.5082 24.1125 11.5082V8.5456Z" fill="#DE206A"/>
</svg>
