<svg width="198" height="49" viewBox="0 0 198 49" fill="none" xmlns="http://www.w3.org/2000/svg">
<g clip-path="url(#clip0_164_93)">
<path fill-rule="evenodd" clip-rule="evenodd" d="M197.475 22.9548V23.9264C197.475 23.9264 196.415 24.3466 196.415 25.5844L196.422 46.3506C196.422 47.0806 195.824 47.6795 195.092 47.6795H190.996L181.979 33.51C181.979 33.51 182.167 34.6841 182.167 36.1604V47.6795H177.176V22.9548H180.411C182.062 22.9548 183.266 23.6336 184.131 24.9893C184.866 26.1395 191.678 36.825 191.678 36.825C191.678 36.825 191.435 36.0967 191.435 34.1469V22.9548H197.475Z" fill="#205527"/>
<path fill-rule="evenodd" clip-rule="evenodd" d="M101.587 22.9548V46.3506C101.587 47.0806 100.984 47.6795 100.252 47.6795H96.1567L87.1407 33.51C87.1407 33.51 87.3287 34.6841 87.3287 36.1604V47.6795H82.3368V22.9548H85.5709C87.2228 22.9548 88.4261 23.6336 89.2907 24.9893C90.0246 26.1395 96.84 36.825 96.84 36.825C96.84 36.825 96.5948 36.0967 96.5948 34.1469V22.9548H101.587Z" fill="#205527"/>
<path fill-rule="evenodd" clip-rule="evenodd" d="M39.8228 22.9548H33.1486V32.43H27.3093V22.9548H19.5596V23.9264C19.5596 23.9264 20.617 24.3238 20.617 25.5844V47.6795H27.3093V36.9514H33.1486V47.6795H39.8228V22.9548Z" fill="#205527"/>
<path fill-rule="evenodd" clip-rule="evenodd" d="M61.4401 22.9548H46.5667V45.4684C46.5667 46.7527 47.792 47.6787 49.0746 47.6795H61.4401C62.172 47.6795 62.7742 47.0797 62.7742 46.3486V43.1583H54.2448C53.6904 43.1583 53.2438 42.7029 53.2438 42.1506V36.9495H60.8446V32.43H53.2438V27.4733H62.7742V24.2867C62.7742 23.5537 62.172 22.9548 61.4401 22.9548Z" fill="#205527"/>
<path fill-rule="evenodd" clip-rule="evenodd" d="M75.532 22.9548H68.8558V46.3506C68.8558 47.0806 69.4598 47.6795 70.1917 47.6795H75.532V22.9548Z" fill="#205527"/>
<path fill-rule="evenodd" clip-rule="evenodd" d="M170.183 22.9548H155.31V45.4684C155.31 46.7004 156.533 47.6787 157.817 47.6795H170.183C170.917 47.6795 171.517 47.0797 171.517 46.3486V43.1583H162.986C162.435 43.1583 161.985 42.7029 161.985 42.1506V36.9495H169.589V32.43H161.985V27.4733H171.517V24.2867C171.517 23.5537 170.917 22.9548 170.183 22.9548Z" fill="#205527"/>
<path fill-rule="evenodd" clip-rule="evenodd" d="M123.202 22.9548H108.331V45.4684C108.331 46.7004 109.554 47.6787 110.838 47.6795H123.202C123.937 47.6795 124.539 47.0797 124.539 46.3486V43.1583H116.008C115.454 43.1583 115.005 42.7029 115.005 42.1506V36.9495H122.61V32.43H115.005V27.4733H124.539V24.2867C124.539 23.5537 123.937 22.9548 123.202 22.9548Z" fill="#205527"/>
<path fill-rule="evenodd" clip-rule="evenodd" d="M151.448 22.9548H146.633C145.473 22.9548 144.584 23.2458 143.666 24.3019C142.746 25.3591 136.864 32.1116 136.864 32.1116V22.9548H130.187V46.3506C130.19 47.0816 130.79 47.6795 131.522 47.6795H136.864V36.4675C136.864 36.4675 141.87 44.2667 142.746 45.6337C143.626 47.0037 144.498 47.6795 146.502 47.6795H151.986L142.617 33.0898L151.448 22.9548Z" fill="#205527"/>
<path fill-rule="evenodd" clip-rule="evenodd" d="M6.61943 32.1379C6.28046 32.3898 5.83942 32.0624 5.96942 31.6654C6.15335 31.0989 9.53918 20.4834 9.53918 20.4834L0.198287 13.5731C-0.138756 13.3211 0.0355431 12.7957 0.445773 12.7987C1.03223 12.8026 11.9928 12.7987 11.9928 12.7987C11.9928 12.7987 15.3816 2.19011 15.5588 1.62161C15.683 1.22365 16.2348 1.2158 16.3609 1.62259C16.5391 2.19208 19.9297 12.7987 19.9297 12.7987C19.9297 12.7987 30.8885 12.8026 31.4749 12.7987C31.8851 12.7957 32.0604 13.3211 31.7223 13.5731L26.1497 17.6938H19.5581L17.5203 11.3167L15.4856 17.6938H8.89111L14.226 21.6371L12.1873 28.0172C12.1873 28.0172 6.9584 31.888 6.61943 32.1379Z" fill="#FF2B00"/>
</g>
<defs>
<clipPath id="clip0_164_93">
<rect width="197.455" height="48" fill="white" transform="translate(0.0202026 0.5)"/>
</clipPath>
</defs>
</svg>
