<svg width="173" height="49" viewBox="0 0 173 49" fill="none" xmlns="http://www.w3.org/2000/svg">
<path d="M39.5584 0.5H5.10262C2.70152 0.5 0.78064 2.42 0.78064 4.82V44.18C0.78064 46.58 2.70152 48.5 5.10262 48.5H39.5584C41.9596 48.5 43.8804 46.58 43.8804 44.18V4.82C43.8804 2.42 41.9596 0.5 39.5584 0.5ZM41.4793 44.18C41.4793 45.26 40.6389 46.1 39.5584 46.1H5.10262C4.02213 46.1 3.18174 45.26 3.18174 44.18V4.82C3.18174 3.74 4.02213 2.9 5.10262 2.9H39.5584C40.6389 2.9 41.4793 3.74 41.4793 4.82V44.18ZM11.5856 41.3L16.9881 36.5L11.5856 31.7V41.3ZM31.0345 21.86C30.0741 20.9 28.2733 19.7 25.2719 19.7C22.0304 19.7 18.6689 20.54 16.2678 21.38V7.7H11.4655V28.46L14.8271 26.9C14.8271 26.9 20.3496 24.38 25.1518 24.38C27.5529 24.38 28.1532 25.7 28.1532 26.9V41.3H32.9554V26.9C33.0755 26.54 33.0755 23.9 31.0345 21.86ZM24.6716 15.5H29.4738C31.6348 12.98 32.7153 10.46 33.0755 7.7H28.2733C27.793 10.46 26.5925 12.98 24.6716 15.5ZM157.333 26.78V16.22H162.135V26.78C162.135 29.18 162.975 30.38 164.896 30.38C166.817 30.38 167.537 29.3 167.537 26.78V16.22H172.219V26.9C172.219 31.58 169.938 34.34 164.776 34.34C159.614 34.22 157.333 31.46 157.333 26.78ZM137.163 16.22H141.965V22.7L146.888 16.22H152.41L146.408 23.18L152.89 33.98H147.488L143.286 26.9L141.965 28.46V33.98H137.163V16.22ZM114.353 24.98C114.353 18.5 118.795 15.74 123.117 15.74C127.439 15.74 131.881 18.5 131.881 24.98C131.881 31.46 127.439 34.22 123.117 34.22C118.795 34.22 114.353 31.58 114.353 24.98ZM126.959 24.98C126.959 21.74 125.518 19.7 122.997 19.7C120.476 19.7 119.035 21.74 119.035 24.98C119.035 28.22 120.476 30.38 122.997 30.38C125.518 30.38 126.959 28.34 126.959 24.98ZM95.0239 16.22H101.987C106.549 16.22 109.31 17.78 109.31 21.98C109.31 24.74 108.11 26.42 105.829 27.14L109.551 33.98H104.508L101.027 27.86H99.7061V33.98H95.0239V16.22ZM101.867 24.14C103.788 24.14 104.748 23.54 104.748 22.1C104.748 20.66 103.908 20.06 101.867 20.06H99.8261V24.14H101.867ZM76.6555 16.22H89.3813V20.18H81.4577V23.06H87.1003V26.78H81.4577V30.02H89.7415V33.86H76.6555V16.22ZM54.9255 16.22H59.7277V22.82H65.6104V16.22H70.4126V33.98H65.6104V26.78H59.7277V33.98H54.9255V16.22Z" fill="#430098"/>
</svg>
