<svg width="472" height="151" viewBox="0 0 472 151" fill="none" xmlns="http://www.w3.org/2000/svg">
<path d="M160 2.75H181.234C185.766 2.75 189.625 3.53125 192.812 5.09375C196 6.65625 198.422 8.96875 200.078 12.0312C201.766 15.0937 202.609 18.8594 202.609 23.3281C202.609 26.8906 202.094 29.9844 201.062 32.6094C200.062 35.2031 198.625 37.375 196.75 39.125C194.906 40.875 192.672 42.2344 190.047 43.2031L186.25 45.3594H168.672L168.625 34.9062H180.953C182.984 34.9062 184.672 34.4531 186.016 33.5469C187.391 32.6406 188.406 31.3906 189.062 29.7969C189.75 28.1719 190.094 26.3125 190.094 24.2188C190.094 21.9375 189.781 19.9844 189.156 18.3594C188.562 16.7031 187.609 15.4375 186.297 14.5625C185.016 13.6875 183.328 13.25 181.234 13.25H172.562V71H160V2.75ZM191.406 71L178.609 40.4375H191.781L204.812 70.3438V71H191.406ZM259.75 31.4375V42.9219C259.75 47.7344 259.188 51.9531 258.062 55.5781C256.938 59.2031 255.312 62.2344 253.188 64.6719C251.062 67.0781 248.516 68.8906 245.547 70.1094C242.578 71.3281 239.297 71.9375 235.703 71.9375C232.078 71.9375 228.781 71.3281 225.812 70.1094C222.844 68.8906 220.281 67.0781 218.125 64.6719C216 62.2344 214.344 59.2031 213.156 55.5781C212 51.9531 211.422 47.7344 211.422 42.9219V31.4375C211.422 26.5312 212 22.2344 213.156 18.5469C214.312 14.8594 215.953 11.7813 218.078 9.3125C220.234 6.84375 222.797 4.98438 225.766 3.73438C228.734 2.45313 232.016 1.8125 235.609 1.8125C239.234 1.8125 242.516 2.45313 245.453 3.73438C248.422 4.98438 250.969 6.84375 253.094 9.3125C255.25 11.7813 256.891 14.8594 258.016 18.5469C259.172 22.2344 259.75 26.5312 259.75 31.4375ZM247.281 42.9219V31.3438C247.281 28 247.031 25.125 246.531 22.7188C246.031 20.3125 245.281 18.3594 244.281 16.8594C243.281 15.3281 242.047 14.2031 240.578 13.4844C239.141 12.7656 237.484 12.4062 235.609 12.4062C233.703 12.4062 232.016 12.7656 230.547 13.4844C229.109 14.2031 227.891 15.3281 226.891 16.8594C225.922 18.3594 225.188 20.3125 224.688 22.7188C224.188 25.125 223.938 28 223.938 31.3438V42.9219C223.938 46.2031 224.188 49.0156 224.688 51.3594C225.188 53.7031 225.938 55.6094 226.938 57.0781C227.969 58.5469 229.203 59.6406 230.641 60.3594C232.109 61.0469 233.797 61.3906 235.703 61.3906C237.578 61.3906 239.234 61.0469 240.672 60.3594C242.141 59.6406 243.359 58.5469 244.328 57.0781C245.328 55.6094 246.062 53.7031 246.531 51.3594C247.031 49.0156 247.281 46.2031 247.281 42.9219ZM293.078 40.7188H279.109L279.062 31.4375H291.203C293.078 31.4375 294.641 31.0938 295.891 30.4062C297.172 29.6875 298.125 28.6562 298.75 27.3125C299.406 25.9688 299.734 24.3281 299.734 22.3906C299.734 20.2031 299.438 18.4531 298.844 17.1406C298.281 15.7969 297.375 14.8125 296.125 14.1875C294.875 13.5625 293.25 13.25 291.25 13.25H283.141V71H270.578V2.75H291.25C294.531 2.75 297.469 3.125 300.062 3.875C302.688 4.59375 304.906 5.71875 306.719 7.25C308.531 8.78125 309.906 10.7188 310.844 13.0625C311.812 15.375 312.297 18.125 312.297 21.3125C312.297 24.125 311.719 26.7031 310.562 29.0469C309.406 31.3906 307.641 33.3125 305.266 34.8125C302.922 36.3125 299.938 37.1719 296.312 37.3906L293.078 40.7188ZM292.609 71H275.312L280.656 60.5469H292.609C294.547 60.5469 296.109 60.1406 297.297 59.3281C298.516 58.5156 299.422 57.3906 300.016 55.9531C300.609 54.4844 300.906 52.7969 300.906 50.8906C300.906 48.8281 300.641 47.0312 300.109 45.5C299.609 43.9688 298.781 42.7969 297.625 41.9844C296.5 41.1406 294.984 40.7188 293.078 40.7188H281.453L281.547 31.4375H296.031L298.984 35.0469C302.422 35.0156 305.203 35.7656 307.328 37.2969C309.453 38.8281 311 40.8125 311.969 43.25C312.938 45.6562 313.422 48.25 313.422 51.0312C313.422 55.375 312.609 59.0312 310.984 62C309.359 64.9688 307 67.2188 303.906 68.75C300.812 70.25 297.047 71 292.609 71ZM362.688 60.5469V71H333.062V60.5469H362.688ZM336.672 2.75V71H324.109V2.75H336.672ZM358.703 30.7812V40.9531H333.062V30.7812H358.703ZM362.5 2.75V13.25H333.062V2.75H362.5ZM371.406 2.75H392.641C397.172 2.75 401.031 3.53125 404.219 5.09375C407.406 6.65625 409.828 8.96875 411.484 12.0312C413.172 15.0937 414.016 18.8594 414.016 23.3281C414.016 26.8906 413.5 29.9844 412.469 32.6094C411.469 35.2031 410.031 37.375 408.156 39.125C406.312 40.875 404.078 42.2344 401.453 43.2031L397.656 45.3594H380.078L380.031 34.9062H392.359C394.391 34.9062 396.078 34.4531 397.422 33.5469C398.797 32.6406 399.812 31.3906 400.469 29.7969C401.156 28.1719 401.5 26.3125 401.5 24.2188C401.5 21.9375 401.188 19.9844 400.562 18.3594C399.969 16.7031 399.016 15.4375 397.703 14.5625C396.422 13.6875 394.734 13.25 392.641 13.25H383.969V71H371.406V2.75ZM402.812 71L390.016 40.4375H403.188L416.219 70.3438V71H402.812ZM447.297 2.75V71H434.828V2.75H447.297ZM464.5 2.75V13.25H417.906V2.75H464.5Z" fill="#17292E"/>
<path d="M189.062 130.234C189.062 128.891 188.922 127.703 188.641 126.672C188.391 125.609 187.891 124.641 187.141 123.766C186.391 122.891 185.312 122.031 183.906 121.188C182.5 120.312 180.688 119.422 178.469 118.516C175.844 117.453 173.359 116.328 171.016 115.141C168.672 113.922 166.578 112.516 164.734 110.922C162.891 109.328 161.438 107.453 160.375 105.297C159.344 103.141 158.828 100.625 158.828 97.75C158.828 94.9375 159.328 92.375 160.328 90.0625C161.359 87.7188 162.812 85.7188 164.688 84.0625C166.562 82.375 168.781 81.0781 171.344 80.1719C173.938 79.2656 176.797 78.8125 179.922 78.8125C184.328 78.8125 188.109 79.7344 191.266 81.5781C194.422 83.4219 196.859 85.9219 198.578 89.0781C200.297 92.2344 201.156 95.7969 201.156 99.7656H188.641C188.641 97.7031 188.328 95.875 187.703 94.2812C187.109 92.6562 186.156 91.3906 184.844 90.4844C183.531 89.5781 181.844 89.125 179.781 89.125C177.844 89.125 176.25 89.5156 175 90.2969C173.75 91.0469 172.828 92.0781 172.234 93.3906C171.641 94.6719 171.344 96.1406 171.344 97.7969C171.344 98.9844 171.609 100.062 172.141 101.031C172.703 101.969 173.469 102.828 174.438 103.609C175.406 104.391 176.578 105.141 177.953 105.859C179.359 106.547 180.922 107.219 182.641 107.875C185.797 109.062 188.562 110.375 190.938 111.812C193.312 113.219 195.281 114.812 196.844 116.594C198.438 118.344 199.625 120.328 200.406 122.547C201.188 124.766 201.578 127.297 201.578 130.141C201.578 132.953 201.094 135.516 200.125 137.828C199.156 140.141 197.75 142.125 195.906 143.781C194.062 145.438 191.828 146.719 189.203 147.625C186.609 148.5 183.719 148.938 180.531 148.938C177.469 148.938 174.547 148.5 171.766 147.625C169.016 146.719 166.578 145.359 164.453 143.547C162.328 141.734 160.656 139.453 159.438 136.703C158.219 133.922 157.609 130.656 157.609 126.906H170.125C170.125 129 170.359 130.812 170.828 132.344C171.297 133.844 172 135.062 172.938 136C173.875 136.906 175 137.578 176.312 138.016C177.625 138.422 179.109 138.625 180.766 138.625C182.734 138.625 184.328 138.266 185.547 137.547C186.766 136.828 187.656 135.844 188.219 134.594C188.781 133.312 189.062 131.859 189.062 130.234ZM238.737 79.75V148H226.268V79.75H238.737ZM255.94 79.75V90.25H209.346V79.75H255.94ZM265.911 79.75H287.146C291.677 79.75 295.536 80.5312 298.724 82.0938C301.911 83.6562 304.333 85.9688 305.989 89.0312C307.677 92.0938 308.521 95.8594 308.521 100.328C308.521 103.891 308.005 106.984 306.974 109.609C305.974 112.203 304.536 114.375 302.661 116.125C300.817 117.875 298.583 119.234 295.958 120.203L292.161 122.359H274.583L274.536 111.906H286.864C288.896 111.906 290.583 111.453 291.927 110.547C293.302 109.641 294.317 108.391 294.974 106.797C295.661 105.172 296.005 103.312 296.005 101.219C296.005 98.9375 295.692 96.9844 295.067 95.3594C294.474 93.7031 293.521 92.4375 292.208 91.5625C290.927 90.6875 289.239 90.25 287.146 90.25H278.474V148H265.911V79.75ZM297.317 148L284.521 117.438H297.692L310.724 147.344V148H297.317ZM367.101 108.438V119.922C367.101 124.734 366.539 128.953 365.414 132.578C364.289 136.203 362.664 139.234 360.539 141.672C358.414 144.078 355.867 145.891 352.898 147.109C349.929 148.328 346.648 148.938 343.054 148.938C339.429 148.938 336.133 148.328 333.164 147.109C330.195 145.891 327.633 144.078 325.476 141.672C323.351 139.234 321.695 136.203 320.508 132.578C319.351 128.953 318.773 124.734 318.773 119.922V108.438C318.773 103.531 319.351 99.2344 320.508 95.5469C321.664 91.8594 323.304 88.7812 325.429 86.3125C327.586 83.8438 330.148 81.9844 333.117 80.7344C336.086 79.4531 339.367 78.8125 342.961 78.8125C346.586 78.8125 349.867 79.4531 352.804 80.7344C355.773 81.9844 358.32 83.8438 360.445 86.3125C362.601 88.7812 364.242 91.8594 365.367 95.5469C366.523 99.2344 367.101 103.531 367.101 108.438ZM354.633 119.922V108.344C354.633 105 354.383 102.125 353.883 99.7188C353.383 97.3125 352.633 95.3594 351.633 93.8594C350.633 92.3281 349.398 91.2031 347.929 90.4844C346.492 89.7656 344.836 89.4062 342.961 89.4062C341.054 89.4062 339.367 89.7656 337.898 90.4844C336.461 91.2031 335.242 92.3281 334.242 93.8594C333.273 95.3594 332.539 97.3125 332.039 99.7188C331.539 102.125 331.289 105 331.289 108.344V119.922C331.289 123.203 331.539 126.016 332.039 128.359C332.539 130.703 333.289 132.609 334.289 134.078C335.32 135.547 336.554 136.641 337.992 137.359C339.461 138.047 341.148 138.391 343.054 138.391C344.929 138.391 346.586 138.047 348.023 137.359C349.492 136.641 350.711 135.547 351.679 134.078C352.679 132.609 353.414 130.703 353.883 128.359C354.383 126.016 354.633 123.203 354.633 119.922ZM401.869 117.719H387.901L387.854 108.438H399.994C401.869 108.438 403.432 108.094 404.682 107.406C405.963 106.688 406.916 105.656 407.541 104.312C408.197 102.969 408.526 101.328 408.526 99.3906C408.526 97.2031 408.229 95.4531 407.635 94.1406C407.072 92.7969 406.166 91.8125 404.916 91.1875C403.666 90.5625 402.041 90.25 400.041 90.25H391.932V148H379.369V79.75H400.041C403.322 79.75 406.26 80.125 408.854 80.875C411.479 81.5938 413.697 82.7188 415.51 84.25C417.322 85.7812 418.697 87.7188 419.635 90.0625C420.604 92.375 421.088 95.125 421.088 98.3125C421.088 101.125 420.51 103.703 419.354 106.047C418.197 108.391 416.432 110.312 414.057 111.812C411.713 113.312 408.729 114.172 405.104 114.391L401.869 117.719ZM401.401 148H384.104L389.447 137.547H401.401C403.338 137.547 404.901 137.141 406.088 136.328C407.307 135.516 408.213 134.391 408.807 132.953C409.401 131.484 409.697 129.797 409.697 127.891C409.697 125.828 409.432 124.031 408.901 122.5C408.401 120.969 407.572 119.797 406.416 118.984C405.291 118.141 403.776 117.719 401.869 117.719H390.244L390.338 108.438H404.822L407.776 112.047C411.213 112.016 413.994 112.766 416.119 114.297C418.244 115.828 419.791 117.812 420.76 120.25C421.729 122.656 422.213 125.25 422.213 128.031C422.213 132.375 421.401 136.031 419.776 139C418.151 141.969 415.791 144.219 412.697 145.75C409.604 147.25 405.838 148 401.401 148ZM471.653 137.547V148H443.294V137.547H471.653ZM446.903 79.75V148H434.341V79.75H446.903Z" fill="#DA7649"/>
<rect y="79" width="67" height="67" rx="20" fill="#17292E"/>
<rect x="77" y="79" width="67" height="67" rx="20" fill="#DA7649"/>
<rect x="77" y="2" width="67" height="67" rx="20" fill="#17292E"/>
</svg>
