<svg width="92" height="91" viewBox="0 0 92 91" fill="none" xmlns="http://www.w3.org/2000/svg">
<mask id="mask0_164_105" style="mask-type:luminance" maskUnits="userSpaceOnUse" x="0" y="0" width="92" height="91">
<path d="M0.78064 45.4996C0.78064 70.6275 21.1527 90.9999 46.2787 90.9999C71.4113 90.9999 91.7805 70.6272 91.7805 45.4996C91.7805 20.3721 71.4113 0 46.2787 0C21.1524 0.000313793 0.78064 20.3721 0.78064 45.4996Z" fill="white"/>
</mask>
<g mask="url(#mask0_164_105)">
<path d="M91.7805 45.4996C91.7805 70.6275 71.4113 90.9999 46.2787 90.9999C21.1527 90.9999 0.78064 70.6272 0.78064 45.4996C0.78064 20.3721 21.1527 0 46.2787 0C71.411 0.000313793 91.7805 20.3721 91.7805 45.4996Z" fill="#E32526"/>
</g>
<mask id="mask1_164_105" style="mask-type:luminance" maskUnits="userSpaceOnUse" x="0" y="0" width="92" height="91">
<path d="M0.78064 45.4996C0.78064 70.6275 21.1527 90.9999 46.2787 90.9999C71.4113 90.9999 91.7805 70.6272 91.7805 45.4996C91.7805 20.3721 71.4113 0 46.2787 0C21.1524 0.000313793 0.78064 20.3721 0.78064 45.4996Z" fill="white"/>
</mask>
<g mask="url(#mask1_164_105)">
<path d="M33.4722 36.3994C34.5011 36.2133 35.2658 36.8387 35.189 37.7898C35.1121 38.7396 34.2128 39.6678 33.1857 39.8514C32.1634 40.0337 31.3921 39.4083 31.4737 38.4566C31.5518 37.5052 32.4452 36.5876 33.4722 36.3994ZM22.4082 43.22C23.2987 39.9044 24.3766 36.5189 25.4432 33.991C23.294 36.8082 20.9911 40.3927 18.916 43.9715C20.1238 43.6888 21.2986 43.438 22.4082 43.22ZM40.712 40.6362C41.5141 40.4903 43.3156 41.5807 42.4539 42.5911C41.5583 43.6307 40.5479 43.4233 38.9617 44.0854C38.0627 44.4582 37.373 45.2631 36.3883 46.6798C35.1363 48.5168 34.5626 50.3161 34.4597 51.6682C34.4512 52.0695 34.4192 52.2701 34.2071 52.4084C32.111 53.7775 31.4661 52.7486 31.5192 51.4909C31.5327 51.1941 31.6365 50.7246 31.8217 50.1466C30.2088 52.565 28.781 53.7882 27.8472 53.9561C26.5954 54.1823 25.8891 53.3134 26.0237 51.7059C26.0852 50.9747 26.3052 50.1152 26.7147 49.032C27.1439 47.9322 27.8205 46.4285 28.4468 45.1965C28.6065 44.8755 28.7609 44.5674 28.8908 44.2916C27.9407 44.4751 26.5926 44.7538 25.0058 45.1156C24.9844 45.1677 24.9665 45.1962 24.9471 45.1994C24.2727 48.3492 24.2197 49.5366 23.8563 52.2829C23.7026 53.4841 23.9342 54.7763 22.5036 54.9737C21.0733 55.1811 20.5985 53.7082 20.5901 52.4505C20.5716 51.1699 20.8082 49.6311 21.7131 45.906C20.227 46.2845 18.6562 46.7197 17.1016 47.197C17.0797 47.2318 17.0643 47.25 17.0643 47.25C14.4827 51.9757 11.9347 57.8229 11.5133 59.7138C11.1772 61.2298 10.4922 61.6942 9.48432 61.2549C8.4783 60.814 7.89245 59.8005 8.25833 58.6705C8.92138 56.6421 10.9406 52.0893 12.7393 48.8218C12.7258 48.8278 12.7393 48.7826 12.7817 48.6997C11.4634 49.2118 10.2377 49.761 9.16645 50.3515C8.4601 50.7318 7.57332 50.3804 7.40325 49.5915C7.2815 49.032 7.01415 47.9272 8.3826 47.3266C10.4499 46.4228 12.6863 45.6575 14.9202 45.0111C19.6644 37.0291 25.5612 28.8169 27.2569 28.9669C27.9909 29.0303 27.8748 29.8235 28.5221 30.5424C29.161 31.2582 29.2542 31.6966 28.4895 33.5941C26.9215 37.4889 27.0464 36.5817 25.5417 42.6576C28.3009 42.2001 30.7027 41.9362 30.9277 41.9014C31.6892 41.7931 32.9999 42.3118 32.3071 43.7992C32.3071 43.7992 31.581 45.0779 31.2945 45.6255C30.7767 46.5314 30.1049 47.893 29.6995 48.813C29.4419 49.3556 29.3248 49.7704 29.3038 50.0741C29.2828 50.2715 29.3568 50.3832 29.5162 50.3547C29.7274 50.3164 30.0371 50.0883 30.4105 49.7017C30.7736 49.2771 31.9996 48.2714 34.1908 44.5796L34.7691 43.3835C34.9555 43.027 35.2225 42.3988 35.2734 42.1104C35.3339 41.6818 35.3503 41.5704 35.7086 41.3447C36.2869 40.9757 37.3322 40.6704 37.9356 41.0642C38.5036 41.4398 38.3564 42.1201 37.8848 42.9454C39.7945 40.795 40.2856 40.7065 40.712 40.6362ZM78.0794 46.8527C79.1532 45.5323 80.8144 42.5029 80.9183 41.6758C80.966 41.2961 80.8568 41.1461 80.5584 41.1847C80.1894 41.2337 79.3613 41.9102 78.573 42.8751C77.4186 44.2605 75.864 47.0548 75.7423 47.9755C75.6911 48.352 75.8449 48.5993 76.1104 48.5676C76.5374 48.5089 77.2755 47.8682 78.0794 46.8527ZM84.5134 44.6669C84.98 43.926 85.9678 44.1682 85.7036 44.8495C85.4755 45.4391 85.0444 46.3962 83.9451 47.6946C82.5943 49.3556 81.3501 50.1614 80.2254 50.3107C79.3186 50.4384 78.6759 50.05 78.519 49.2376L78.4663 49.0722C78.4635 48.9291 78.3916 48.8579 78.3129 48.8711C78.23 48.8798 78.1695 48.9417 78.0179 49.0847C76.8773 50.2935 76.0049 51.0369 74.9506 51.1812C73.3757 51.387 72.4591 50.1576 72.6822 48.3737C72.2608 48.9975 71.8255 49.5969 71.4248 50.039C70.1941 51.4062 69.1853 52.2748 68.2492 52.3971C66.9862 52.566 66.3251 51.6657 66.5378 50.0707C66.6329 49.3439 66.9037 48.4976 67.3659 47.4238C67.846 46.3529 68.5906 44.8806 69.2788 43.6797C69.8282 42.6956 70.3585 41.5829 70.4411 41.2035C70.5045 40.9048 70.5371 40.8471 70.7705 40.6952C71.0639 40.4868 71.6429 40.2399 71.9959 40.2119C72.8874 40.1448 74.0704 40.7893 73.2878 42.1258L72.9928 42.6341C72.9505 42.7386 72.4151 43.706 72.1073 44.2338C71.5393 45.1231 70.8123 46.4486 70.3557 47.3457C70.0724 47.8798 69.9349 48.2883 69.8976 48.5858C69.8665 48.7848 69.9349 48.9034 70.0906 48.8802C70.3087 48.8532 70.6297 48.6388 71.0197 48.2623C71.4198 47.8437 71.6642 47.566 72.556 46.3861L72.8796 45.9779C73.1369 45.6421 75.169 42.9846 75.7799 42.3266C77.4192 40.3707 79.2706 38.9844 80.4595 38.8306C81.2406 38.723 81.8707 39.0795 82.1744 39.8009C82.3887 40.3899 82.4311 40.4303 82.9536 40.656C83.7892 40.9873 84.0631 41.2679 83.9988 41.6937C83.9677 41.9974 83.8538 42.2328 83.3226 43.0678C82.9492 43.7063 82.5378 44.4519 82.2428 45.0265C81.6218 46.2556 81.282 47.0922 81.8841 47.3055C82.1123 47.3843 82.534 47.1675 83.0606 46.6099C83.643 45.9926 84.0553 45.3814 84.5134 44.6669ZM73.7456 38.4996C74.7711 38.317 75.667 37.3928 75.7479 36.4389C75.8217 35.4869 75.0541 34.8671 74.0337 35.0507C73.006 35.2352 72.1067 36.1584 72.0317 37.1136C71.9498 38.0634 72.7223 38.6841 73.7456 38.4996ZM58.1529 33.9891C56.0192 36.7916 53.7269 40.3607 51.6496 43.9251C52.8643 43.6473 54.0316 43.4073 55.1227 43.2008C56.0195 39.8966 57.0886 36.5136 58.1529 33.9891ZM58.6889 42.603C59.3017 42.5127 61.2946 42.2764 61.2181 43.1123C61.1007 44.4594 60.5933 44.4394 58.811 44.8216C58.474 44.8975 58.1153 44.9744 57.7391 45.0541C57.7118 45.1445 57.6829 45.1972 57.6622 45.2003C56.9907 48.3502 56.9376 49.5413 56.5689 52.2839C56.4105 53.4851 56.6455 54.7773 55.2155 54.9746C53.7859 55.1821 53.292 53.7082 53.3005 52.4514C53.3055 50.2273 54.4276 45.8665 54.4332 45.8408C52.9785 46.2113 51.4186 46.6331 49.8666 47.1173C48.0174 50.2577 44.6473 57.8239 44.2303 59.7148C43.8911 61.2307 43.207 61.6951 42.1963 61.2511C41.1906 60.8149 40.6286 59.8102 40.9734 58.6714C41.912 55.541 45.46 48.7615 45.5159 48.6392C44.1998 49.1679 42.9729 49.7352 41.9151 50.3387C41.2599 50.7114 40.424 50.3559 40.2464 49.5702C40.129 49.005 39.8686 47.9043 41.1485 47.3194C43.2014 46.3836 45.4334 45.601 47.6622 44.9584C52.3989 36.9915 58.2731 28.8175 59.9657 28.9684C60.7035 29.0309 60.5886 29.8245 61.2335 30.543C61.8752 31.2569 61.9655 31.6972 61.1964 33.5947C59.6356 37.4923 59.764 36.5823 58.254 42.6689C58.4027 42.6482 58.5436 42.6244 58.6889 42.603ZM60.9517 53.6442C62.1218 53.5243 65.5421 52.7746 65.5763 49.0195C65.5842 47.566 64.195 46.7997 63.8574 45.7865C63.6396 45.1605 63.692 43.8686 64.6798 43.4804C65.9002 43 66.1528 43.802 66.5742 44.4017C66.7493 44.6477 67.3082 44.589 67.4993 44.3892C67.7657 44.1124 68.1548 43.6982 68.3227 42.995C68.4708 42.3504 67.7867 41.2675 65.7991 41.3347C65.1044 41.3501 64.1216 41.4684 62.7296 42.796C62.0876 43.407 60.0439 46.2019 61.5567 48.6018C61.9649 49.2533 62.9468 50.0497 62.3154 50.6616C61.3304 51.6108 59.6384 50.1403 59.3168 49.6963C59.1718 49.4921 58.752 49.2533 58.4762 49.658C58.3167 49.8903 57.5577 51.2433 57.675 51.7435C58.0168 53.3046 60.0313 53.7364 60.9517 53.6442Z" fill="white"/>
</g>
</svg>
