<svg width="128" height="42" viewBox="0 0 128 42" fill="none" xmlns="http://www.w3.org/2000/svg">
<path d="M127.99 20.9972L109.275 39.7168L90.5588 20.9972L109.275 2.2844L127.99 20.9972Z" fill="#EF3E42"/>
<path d="M0.194962 41.5073L4.32483 12.5306C5.24729 6.13643 11.9956 0.558128 19.2332 0.558128C26.5773 0.558128 30.062 5.66202 29.355 10.5597L28.7557 14.7778C28.2652 18.314 25.6526 21.7163 21.0288 24.2315L25.7626 32.2575C26.3069 33.141 26.5258 34.5001 26.3069 35.9336C25.8176 38.992 23.5315 41.5073 21.0288 41.5073C19.6698 41.5073 18.58 40.7625 17.9291 39.6051L10.962 27.5616L9.76563 35.9978C9.32903 39.0597 7.04294 41.5073 4.59412 41.5073H0.194962ZM16.7305 6.54552C15.1503 6.54552 13.6824 8.11084 13.4119 10.083L12.219 18.8171C11.9486 20.7904 12.9822 22.3568 14.5601 22.3568C16.1369 22.3568 17.606 20.7904 17.8787 18.8171L19.0704 10.083C19.3432 8.11084 18.3061 6.54552 16.7305 6.54552Z" fill="#0067B1"/>
<path d="M33.9687 6.95215C34.458 3.41471 37.2322 0.491493 40.0627 0.491493C42.8919 0.491493 44.7964 3.41471 44.306 6.95215L42.2949 21.5774H47.9007L49.9668 6.95215C50.4561 3.41471 53.2326 0.491493 56.063 0.491493C58.8923 0.491493 60.7968 3.41471 60.3064 6.95215L56.3885 35.0454C55.898 38.5816 53.1238 41.5083 50.2922 41.5083C47.4641 41.5083 45.5596 38.5816 46.0489 35.0454L47.3014 25.9308H41.6429L40.3904 35.0454C39.8988 38.5816 37.1245 41.5083 34.2964 41.5083H29.1788L33.9687 6.95215Z" fill="#0067B1"/>
<path d="M89.0243 12.2588C88.5877 14.9803 87.1175 17.632 84.5048 20.0808C86.3016 21.9865 87.0625 24.5017 86.6821 26.9517L86.3016 29.4681C85.323 35.9311 78.6274 41.5071 71.446 41.5071H60.0717L64.2611 12.4651C65.1893 6.06973 71.9365 0.492569 79.1717 0.492569C86.5171 0.492569 90.0556 5.59303 89.2925 10.4918L89.0243 12.2588ZM75.0373 21.4421C73.2405 21.4421 71.5549 23.2779 71.2271 25.5239L70.4112 31.3738C70.0858 33.6175 71.2821 35.4532 73.0778 35.4532C74.8734 35.4532 76.6164 33.6175 76.9418 31.3738L77.7588 25.5239C78.0866 23.2779 76.8306 21.4421 75.0373 21.4421ZM77.2145 6.54528C75.4189 6.54528 73.7848 8.38218 73.4044 10.627L72.7523 14.64C72.3685 16.8849 73.6232 18.7206 75.4189 18.7206C77.2145 18.7206 78.9013 16.8849 79.284 14.64L79.9349 10.627C80.3165 8.38218 79.009 6.54528 77.2145 6.54528Z" fill="#0067B1"/>
</svg>
