<svg width="105" height="73" viewBox="0 0 105 73" fill="none" xmlns="http://www.w3.org/2000/svg">
<mask id="mask0_164_151" style="mask-type:luminance" maskUnits="userSpaceOnUse" x="0" y="0" width="105" height="73">
<path d="M0.474762 0H104.98V72.9998H0.474762V0Z" fill="white"/>
</mask>
<g mask="url(#mask0_164_151)">
<path fill-rule="evenodd" clip-rule="evenodd" d="M43.8674 7.9916C47.2408 4.47993 51.9358 2.3053 57.1226 2.3053C64.0384 2.3053 70.0321 6.1474 73.2594 11.8721C76.1242 10.5915 79.2272 9.93027 82.3652 9.93186C94.8136 9.93186 104.918 20.1134 104.918 32.6771C104.918 45.2407 94.8136 55.4223 82.3652 55.4223C80.8437 55.4223 79.3607 55.2694 77.9084 54.9804C75.0844 60.0136 69.6863 63.4331 63.5389 63.4331C61.0361 63.438 58.5654 62.8703 56.3158 61.7733C53.4534 68.4969 46.7874 73.2227 39.0264 73.2227C30.9195 73.2227 24.0422 68.1127 21.3911 60.928C20.2112 61.177 19.0085 61.3022 17.8026 61.3015C8.15895 61.3015 0.359497 53.3867 0.359497 43.6662C0.359497 37.1347 3.87117 31.4484 9.08106 28.3747C7.97578 25.8285 7.40685 23.082 7.40974 20.3063C7.40974 9.08737 16.5155 0.0200195 27.7344 0.0200195C34.3044 0.0200195 40.1828 3.15133 43.8712 8.01158" fill="#00A1E0"/>
</g>
<path fill-rule="evenodd" clip-rule="evenodd" d="M15.5896 37.96C15.5239 38.1314 15.613 38.1671 15.6341 38.1974C15.8305 38.3396 16.0299 38.4426 16.2297 38.5582C17.2978 39.123 18.3044 39.2882 19.3571 39.2882C21.501 39.2882 22.8342 38.1471 22.8342 36.3106V36.2745C22.8342 34.5763 21.3281 33.9577 19.9219 33.5158L19.7379 33.4563C18.6736 33.1113 17.7554 32.8108 17.7554 32.1116V32.0758C17.7554 31.4765 18.2933 31.0346 19.1231 31.0346C20.0453 31.0346 21.1441 31.3416 21.8472 31.73C21.8472 31.73 22.0554 31.8645 22.1311 31.6636C22.1722 31.5548 22.5307 30.5955 22.5691 30.4879C22.6099 30.3753 22.5384 30.2904 22.465 30.2466C21.6582 29.7548 20.544 29.4206 19.3913 29.4206L19.1773 29.4213C17.214 29.4213 15.8424 30.6085 15.8424 32.3067V32.3432C15.8424 34.1337 17.3562 34.7177 18.7701 35.1211L18.9975 35.1918C20.0272 35.5084 20.9186 35.7835 20.9186 36.5058V36.5419C20.9186 37.2066 20.3384 37.7022 19.4086 37.7022C19.0471 37.7022 17.8948 37.696 16.6462 36.9069C16.4952 36.8189 16.4091 36.7555 16.2927 36.6844C16.2312 36.6472 16.0775 36.5799 16.0107 36.7812L15.588 37.9569M46.978 37.9569C46.9123 38.1283 47.0014 38.164 47.0233 38.1944C47.2189 38.3365 47.419 38.4395 47.6188 38.5551C48.6869 39.1199 49.6936 39.2851 50.7463 39.2851C52.8902 39.2851 54.2234 38.144 54.2234 36.3075V36.2714C54.2234 34.5732 52.7211 33.9546 51.3111 33.5128L51.127 33.4532C50.0628 33.1082 49.1445 32.8077 49.1445 32.1085V32.0728C49.1445 31.4734 49.6824 31.0315 50.5123 31.0315C51.4344 31.0315 52.5294 31.3385 53.2364 31.727C53.2364 31.727 53.4446 31.8614 53.5207 31.6605C53.5614 31.5518 53.9203 30.5924 53.9548 30.4848C53.9959 30.3722 53.9241 30.2873 53.8511 30.2435C53.0443 29.7517 51.93 29.4175 50.7774 29.4175L50.563 29.4182C48.5997 29.4182 47.2281 30.6055 47.2281 32.3037V32.3402C47.2281 34.1306 48.7419 34.7146 50.1558 35.118L50.3828 35.1887C51.4164 35.5053 52.3039 35.7804 52.3039 36.5027V36.5388C52.3039 37.2035 51.7237 37.6991 50.7939 37.6991C50.4316 37.6991 49.2763 37.693 48.0315 36.9038C47.8805 36.8158 47.7921 36.7551 47.6776 36.6813C47.6388 36.6568 47.4578 36.5861 47.396 36.7782L46.9734 37.9538M68.4123 34.3576C68.4123 35.395 68.2186 36.2134 67.8398 36.7935C67.4617 37.366 66.8908 37.6465 66.0955 37.6465C65.3002 37.6465 64.7315 37.3683 64.3588 36.7974C63.9835 36.2211 63.7941 35.3989 63.7941 34.3615C63.7941 33.3241 63.9846 32.5096 64.3588 31.9371C64.7308 31.3685 65.2963 31.0957 66.0955 31.0957C66.8946 31.0957 67.4633 31.3712 67.8398 31.9371C68.2209 32.5096 68.4123 33.3241 68.4123 34.3615M70.2027 32.4366C70.0263 31.8411 69.7532 31.3185 69.3881 30.8806C69.0228 30.4426 68.5621 30.0891 68.0127 29.8355C67.4671 29.58 66.8216 29.4513 66.0916 29.4513C65.3616 29.4513 64.72 29.5808 64.1706 29.8355C63.625 30.0906 63.1601 30.4426 62.7951 30.8806C62.4309 31.3185 62.1573 31.8411 61.9806 32.4366C61.8058 33.0283 61.717 33.6738 61.717 34.3615C61.717 35.0492 61.8058 35.6947 61.9806 36.2864C62.1562 36.8819 62.4301 37.4044 62.7951 37.8424C63.1605 38.2804 63.625 38.6301 64.1706 38.8798C64.72 39.1288 65.3655 39.2556 66.0916 39.2556C66.8178 39.2556 67.4633 39.1288 68.0088 38.8798C68.5544 38.6308 69.0193 38.2804 69.3843 37.8424C69.7489 37.4044 70.0221 36.8819 70.1988 36.2864C70.3733 35.6947 70.462 35.0492 70.462 34.3615C70.462 33.6776 70.3733 33.0283 70.1988 32.4366M84.9141 37.3545C84.8553 37.1804 84.6855 37.2461 84.6855 37.2461C84.4254 37.3456 84.1476 37.4379 83.8517 37.484C83.5536 37.5308 83.2216 37.5543 82.872 37.5543C82.0075 37.5543 81.3159 37.2965 80.8242 36.7859C80.3285 36.2749 80.0519 35.4526 80.0557 34.3384C80.0584 33.3241 80.3036 32.5634 80.7435 31.9794C81.1776 31.4031 81.8462 31.1034 82.7298 31.1034C83.4675 31.1034 84.0323 31.1891 84.624 31.3743C84.624 31.3743 84.7642 31.4353 84.8315 31.2505C84.9886 30.8164 85.1046 30.5052 85.2733 30.0288C85.3209 29.8924 85.2041 29.8347 85.1615 29.8182C84.9294 29.7275 84.3816 29.5788 83.9666 29.5162C83.5786 29.4571 83.129 29.4263 82.6219 29.4263C81.8688 29.4263 81.2003 29.555 80.6278 29.8101C80.0554 30.0649 79.5712 30.4172 79.187 30.8552C78.8028 31.2932 78.5108 31.8157 78.3149 32.4112C78.1209 33.0029 78.0229 33.6522 78.0229 34.34C78.0229 35.823 78.4225 37.0256 79.2139 37.9054C80.0054 38.7891 81.1964 39.2348 82.7487 39.2348C83.6669 39.2348 84.6082 39.0492 85.2844 38.7814C85.2844 38.7814 85.4135 38.7192 85.3574 38.5686L84.9156 37.3545M88.0469 33.3587C88.1326 32.7824 88.2905 32.3021 88.5387 31.9294C88.9102 31.3608 89.4762 31.0496 90.2715 31.0496C91.0668 31.0496 91.5932 31.3623 91.9697 31.9294C92.2194 32.304 92.3285 32.8016 92.3693 33.3587L88.0277 33.3579L88.0469 33.3587ZM94.079 32.0908C93.9265 31.5183 93.5488 30.9382 93.3029 30.6731C92.911 30.2543 92.5306 29.9584 92.1503 29.7971C91.6011 29.5636 91.0104 29.4437 90.4136 29.4448C89.6567 29.4448 88.969 29.5727 88.4119 29.8328C87.8548 30.0948 87.3861 30.4514 87.0172 30.8971C86.6488 31.3428 86.3718 31.8691 86.195 32.4723C86.0183 33.0679 85.9291 33.721 85.9291 34.4049C85.9291 35.1042 86.0217 35.7535 86.2039 36.3413C86.3879 36.933 86.6841 37.4517 87.0837 37.882C87.4833 38.3162 87.9943 38.6543 88.609 38.8925C89.2199 39.1288 89.9614 39.2513 90.8105 39.2486C92.5625 39.2429 93.4846 38.8529 93.8612 38.6416C93.9284 38.6039 93.9918 38.539 93.9126 38.3519L93.5169 37.2415C93.4562 37.0759 93.2887 37.1359 93.2887 37.1359C92.8545 37.298 92.2398 37.5892 90.799 37.5854C89.8577 37.5839 89.1623 37.3061 88.7243 36.8708C88.2786 36.4251 88.0557 35.7758 88.0212 34.8537L94.0917 34.8583C94.0917 34.8583 94.2515 34.8567 94.268 34.7007C94.2746 34.6362 94.4759 33.4559 94.0871 32.092L94.079 32.0908ZM39.5212 33.3587C39.6069 32.7824 39.7652 32.3021 40.013 31.9294C40.3849 31.3608 40.9505 31.0496 41.7458 31.0496C42.5411 31.0496 43.0675 31.3623 43.444 31.9294C43.6934 32.304 43.8025 32.8016 43.8436 33.3587L39.502 33.3579L39.5212 33.3587ZM45.5533 32.0908C45.4012 31.5183 45.0231 30.9382 44.7772 30.6731C44.3853 30.2543 44.005 29.9584 43.6246 29.7971C43.0754 29.5636 42.4847 29.4437 41.888 29.4448C41.1311 29.4448 40.4433 29.5727 39.8862 29.8328C39.3291 30.0948 38.8604 30.4514 38.4915 30.8971C38.1239 31.3428 37.8461 31.8691 37.6693 32.4723C37.493 33.0679 37.4042 33.721 37.4042 34.4049C37.4042 35.1042 37.4961 35.7535 37.6793 36.3413C37.863 36.933 38.1596 37.4517 38.5553 37.882C38.9549 38.3162 39.4659 38.6543 40.0806 38.8925C40.6915 39.1288 41.4292 39.2513 42.2822 39.2486C44.0342 39.2429 44.9563 38.8529 45.3328 38.6416C45.3996 38.6039 45.4634 38.539 45.3839 38.3519L44.9881 37.2415C44.9271 37.0759 44.7595 37.1359 44.7595 37.1359C44.3254 37.298 43.7106 37.5892 42.2699 37.5854C41.3324 37.5839 40.6331 37.3061 40.1951 36.8708C39.7494 36.4251 39.5266 35.7758 39.492 34.8537L45.5625 34.8583C45.5625 34.8583 45.7224 34.8567 45.7389 34.7007C45.7454 34.6362 45.9467 33.4559 45.5575 32.092L45.5533 32.0908ZM26.4197 37.3161C26.1818 37.1263 26.1488 37.0798 26.07 36.9564C25.9498 36.7709 25.8883 36.5069 25.8883 36.1688C25.8883 35.6386 26.065 35.2544 26.43 34.997C26.4262 34.9977 26.9526 34.5436 28.1897 34.559C28.7404 34.5688 29.2898 34.6157 29.8341 34.6992V37.454H29.8349C29.8349 37.454 29.0665 37.6196 28.1982 37.6718C26.9649 37.746 26.4193 37.3168 26.4231 37.318L26.4197 37.3161ZM28.8325 33.0513C28.5866 33.0333 28.2677 33.0244 27.8874 33.0244C27.3687 33.0244 26.8654 33.089 26.3966 33.2158C25.924 33.3433 25.4976 33.5408 25.1326 33.8036C24.7666 34.0647 24.4655 34.4065 24.2527 34.8026C24.038 35.2021 23.9285 35.6709 23.9285 36.2011C23.9285 36.739 24.0218 37.2039 24.2062 37.5842C24.387 37.9615 24.659 38.2877 24.9977 38.5332C25.3347 38.7784 25.7508 38.9597 26.231 39.0673C26.7074 39.176 27.2453 39.231 27.837 39.231C28.4594 39.231 29.078 39.1787 29.6774 39.0777C30.1879 38.9896 30.6964 38.8907 31.2027 38.7811C31.4048 38.7346 31.6292 38.6735 31.6292 38.6735C31.779 38.6354 31.7675 38.4752 31.7675 38.4752L31.764 32.9426C31.764 31.7285 31.4398 30.8256 30.7997 30.2685C30.1619 29.7114 29.2282 29.4309 28.018 29.4309C27.5646 29.4309 26.8308 29.4924 26.3928 29.5804C26.3928 29.5804 25.0711 29.837 24.5255 30.2643C24.5255 30.2643 24.4056 30.338 24.471 30.5052L24.9013 31.6578C24.9547 31.8073 25.1003 31.7562 25.1003 31.7562C25.1003 31.7562 25.146 31.7381 25.1998 31.7062C26.364 31.0723 27.8393 31.0915 27.8393 31.0915C28.4925 31.0915 28.9996 31.224 29.3377 31.4834C29.6686 31.7373 29.8372 32.1212 29.8372 32.928V33.1843C29.3185 33.109 28.8383 33.0655 28.8383 33.0655L28.8325 33.0513ZM77.6271 29.9277C77.6359 29.9074 77.6404 29.8856 77.6406 29.8636C77.6407 29.8415 77.6364 29.8196 77.6279 29.7993C77.6194 29.7789 77.6069 29.7605 77.5911 29.745C77.5754 29.7296 77.5566 29.7175 77.5361 29.7095C77.4327 29.6703 76.9175 29.5616 76.5218 29.537C75.761 29.4893 75.3384 29.6177 74.958 29.7882C74.5823 29.9577 74.1666 30.2301 73.936 30.5451L73.9353 29.8075C73.9353 29.706 73.8634 29.6242 73.7612 29.6242H72.209C72.1084 29.6242 72.0354 29.706 72.0354 29.8075V38.8364C72.0355 38.8852 72.0549 38.9319 72.0894 38.9664C72.1239 39.0009 72.1706 39.0203 72.2194 39.0204H73.81C73.8588 39.0203 73.9055 39.0009 73.9399 38.9664C73.9743 38.9319 73.9937 38.8851 73.9937 38.8364V34.3027C73.9937 33.6957 74.0605 33.0924 74.1939 32.7121C74.3252 32.3359 74.5039 32.0359 74.7241 31.8207C74.9341 31.6129 75.1911 31.4587 75.4733 31.3712C75.7381 31.2952 76.0123 31.2566 76.2878 31.2567C76.6048 31.2567 76.9525 31.3381 76.9525 31.3381C77.0693 31.3512 77.1342 31.2797 77.1738 31.1745C77.2779 30.8975 77.5734 30.0679 77.631 29.9027" fill="#FFFFFE"/>
<path fill-rule="evenodd" clip-rule="evenodd" d="M62.7709 25.7604C62.5743 25.701 62.3743 25.6535 62.1719 25.6183C61.8998 25.5728 61.6241 25.5515 61.3482 25.5545C60.252 25.5545 59.3879 25.8641 58.7813 26.4758C58.1788 27.0829 57.7689 28.0077 57.5633 29.2244L57.4892 29.6352H56.1133C56.1133 29.6352 55.9454 29.6283 55.9101 29.8115L55.6842 31.0717C55.6684 31.1924 55.7203 31.2677 55.8816 31.2669H57.221L55.862 38.8524C55.7556 39.4633 55.6338 39.9658 55.499 40.3465C55.366 40.7223 55.2362 41.0039 55.0763 41.2083C54.9215 41.4062 54.7747 41.5518 54.5215 41.6367C54.3125 41.707 54.072 41.7393 53.8084 41.7393C53.6617 41.7393 53.4665 41.7147 53.3224 41.6859C53.1783 41.6575 53.1034 41.6252 52.9955 41.5799C52.9955 41.5799 52.8383 41.5199 52.7765 41.6775C52.7261 41.8062 52.3692 42.7878 52.3269 42.9092C52.2839 43.0291 52.3442 43.1236 52.4203 43.1509C52.5986 43.2147 52.7311 43.2554 52.9739 43.3126C53.3113 43.3922 53.5956 43.3972 53.8619 43.3972C54.4197 43.3972 54.928 43.3188 55.3495 43.1666C55.7737 43.0133 56.1429 42.7463 56.4695 42.3848C56.8226 41.9948 57.0447 41.5864 57.2571 41.0293C57.4673 40.4772 57.6463 39.7917 57.7896 38.993L59.1551 31.2669H61.1515C61.1515 31.2669 61.3197 31.2731 61.3547 31.0906L61.5806 29.8303C61.5964 29.7097 61.5449 29.6344 61.3828 29.6352H59.4452C59.4548 29.5914 59.5428 28.9098 59.7652 28.2681C59.8601 27.9942 60.0388 27.7733 60.1902 27.6215C60.3315 27.477 60.5056 27.3687 60.6977 27.3057C60.9083 27.2406 61.1278 27.209 61.3482 27.212C61.5307 27.212 61.7097 27.2339 61.8461 27.2623C62.034 27.3022 62.107 27.3234 62.1562 27.338C62.3537 27.3983 62.3802 27.3399 62.419 27.2442L62.8823 25.9717C62.93 25.8349 62.8139 25.7773 62.7709 25.7604ZM35.6941 38.8685C35.6941 38.9699 35.6219 39.0525 35.5205 39.0525H33.9133C33.8115 39.0525 33.7393 38.9699 33.7393 38.8685V25.9329C33.7393 25.8319 33.8115 25.75 33.9133 25.75H35.5205C35.6219 25.75 35.6941 25.8319 35.6941 25.9329V38.8685Z" fill="#FFFFFE"/>
</svg>
