<svg width="172" height="48" viewBox="0 0 172 48" fill="none" xmlns="http://www.w3.org/2000/svg">
<path d="M109.049 19.2452C108.939 21.372 108.887 23.505 108.705 25.6257C108.488 28.1392 107.947 30.5878 106.735 32.8368C106.043 34.1183 105.162 35.2405 103.847 35.9474C103.17 36.3109 102.459 36.4896 101.685 36.28C101.016 36.0975 100.517 35.3627 100.517 34.7254C100.533 24.6767 100.53 14.628 100.521 4.58005C100.521 4.27069 100.602 4.16551 100.916 4.12142C102.096 3.95205 103.268 3.90565 104.417 4.28229C105.951 4.785 106.931 5.88708 107.593 7.30858C108.232 8.67981 108.532 10.1423 108.718 11.6311C109.035 14.1585 109.047 16.7007 109.049 19.2452ZM90.57 0C90.6118 0.110596 90.6257 0.159319 90.6481 0.204176C90.7719 0.440062 90.8894 0.679814 91.024 0.907966C92 2.57695 93.1802 4.05182 94.9072 5.01469C94.9892 5.0611 95.0402 5.2297 95.0402 5.34184C95.048 8.60402 95.0464 11.8647 95.0449 15.1261C95.0449 15.215 95.0356 15.3039 95.0317 15.3743C93.1887 15.891 91.9497 17.133 90.8554 18.6056C90.9142 18.6118 90.935 18.6195 90.9536 18.6149C91.0333 18.5978 91.1129 18.5762 91.1926 18.5576C92.4671 18.2684 93.6767 18.3975 94.8012 19.1029C94.9714 19.2104 95.0526 19.3271 95.0518 19.5452C95.0449 24.6215 95.0449 29.6979 95.0518 34.7742C95.0518 34.9753 94.9737 35.0874 94.8299 35.2073C94.1415 35.7742 93.4455 36.3333 92.7835 36.9319C92.256 37.4091 91.7749 37.9389 91.2459 38.4725C91.3194 38.4725 91.3573 38.4756 91.3944 38.4725C92.362 38.3612 93.3279 38.2173 94.2978 38.1446C95.5553 38.0518 96.8175 37.9513 98.0758 37.9683C99.8036 37.9915 101.52 37.9606 103.22 37.6179C105.981 37.0611 108.391 35.8546 110.29 33.7355C111.908 31.9312 112.862 29.7858 113.46 27.4617C114.032 25.2421 114.18 22.9745 114.239 20.6992C114.309 17.9722 114.31 15.2459 113.95 12.5329C113.715 10.7703 113.353 9.04176 112.654 7.39675C111.657 5.0495 110.049 3.32328 107.61 2.44316C106.136 1.91106 104.602 1.7355 103.047 1.69683C100.905 1.64501 98.7603 1.62722 96.618 1.5437C95.0789 1.48415 93.5507 1.29234 92.1106 0.681361C91.6133 0.470224 91.1214 0.244393 90.57 0Z" fill="#17292E"/>
<path d="M166.1 3.68362C167.793 3.01773 169.63 2.88161 171.483 2.84835C169.71 3.85454 168.606 5.48022 167.511 7.09816C166.789 8.16622 166.16 9.2977 165.49 10.4006L165.319 10.6828C165.237 9.96359 165.183 9.28455 165.08 8.6117C164.855 7.12832 164.541 5.66738 163.756 4.35802C163.436 3.82206 163.034 3.36034 162.451 3.09197C161.829 2.80582 161.221 2.82051 160.633 3.19252C160.01 3.58695 159.562 4.14379 159.176 4.75477C158.269 6.19329 157.734 7.78262 157.323 9.41757C156.726 11.7919 156.437 14.2111 156.321 16.6527C156.174 19.7293 156.243 22.8027 156.591 25.8646C156.882 28.4276 157.368 30.9489 158.459 33.3132C158.921 34.3155 159.483 35.2559 160.33 35.9891C160.53 36.1631 160.754 36.317 160.988 36.44C161.523 36.7231 161.904 36.6883 162.324 36.2552C162.629 35.9381 162.893 35.584 163.11 35.201C163.772 34.0324 164.134 32.7478 164.45 31.4531C165.015 29.1422 165.311 26.7996 165.206 24.416C165.164 23.4307 165.037 22.4562 164.664 21.5313C164.66 21.5212 164.658 21.5112 164.654 21.5011C164.319 20.7378 163.882 20.051 162.947 20.0239C161.94 19.9945 161.142 20.4299 160.646 21.3364C160.238 22.0811 160.066 22.8971 160.038 23.73C160.009 24.5986 160.063 25.4686 160.083 26.3395C160.084 26.457 160.098 26.5753 160.046 26.7177C159.98 26.6218 159.909 26.5289 159.848 26.4299C158.167 23.6303 158.097 20.7161 159.243 17.7215C159.315 17.5336 159.319 17.4114 159.189 17.2343C158.544 16.3549 158.341 15.324 158.2 14.2049C158.331 14.3124 158.415 14.3789 158.498 14.4485C160.24 15.9079 162.249 16.7764 164.484 17.1283C165.624 17.3078 166.773 17.389 167.907 17.1074C169.921 16.6101 171.085 15.266 171.616 13.3124C171.645 13.2049 171.667 13.0958 171.699 12.9628C171.725 12.9992 171.748 13.0177 171.749 13.0378C171.889 14.9992 171.811 16.9342 170.993 18.7656C170.821 19.1546 170.555 19.5026 170.346 19.8777C170.273 20.0108 170.196 20.167 170.196 20.3139C170.204 23.4098 169.938 26.4764 169.205 29.491C168.671 31.6844 167.909 33.7865 166.565 35.6341C165.374 37.2737 163.848 38.4439 161.836 38.8901C159.903 39.3178 158.204 38.7648 156.688 37.5661C155.169 36.3665 154.093 34.8112 153.205 33.119C151.718 30.2869 150.793 27.2699 150.37 24.1098C150.196 22.8136 150.171 21.4972 150.099 20.1887C150.087 19.9551 150.015 19.8499 149.804 19.7687C148.991 19.4547 148.186 19.1221 147.378 18.7965C147.296 18.7625 147.216 18.7254 147.081 18.6666C147.559 18.4439 147.999 18.2598 148.418 18.0355C148.959 17.7455 149.485 17.4269 150.011 17.1098C150.245 16.969 150.333 16.7463 150.371 16.4694C150.904 12.6334 151.908 8.9458 153.88 5.57457C154.827 3.95663 155.984 2.51425 157.578 1.4779C158.755 0.713784 160.03 0.233505 161.459 0.321672C162.702 0.399012 163.71 1.00303 164.555 1.86537C165.104 2.42531 165.576 3.06104 166.101 3.68285L166.1 3.68362Z" fill="#17292E"/>
<path d="M8.11059 41.5213C8.99389 42.204 9.96396 42.7663 10.9954 43.1934C13.4896 44.2375 16.0843 44.5755 18.768 44.2955C21.2568 44.0364 23.6017 43.2924 25.8345 42.1919C28.9582 40.6505 32.2475 39.5879 35.6148 38.7449C39.4602 37.7828 43.3604 37.1285 47.2993 36.6946C50.3913 36.3543 53.4911 36.1578 56.6017 36.1215C59.9404 36.0828 63.2699 36.2166 66.5746 36.7085C71.5398 37.4471 76.2305 38.9614 80.4455 41.7603C82.215 42.9359 83.8252 44.2955 85.1137 46.0039C85.273 46.2151 85.413 46.4394 85.57 46.6698C87.0186 45.3628 88.6404 44.328 90.3465 43.4231C93.3519 41.8299 96.536 40.7085 99.8376 39.9119C103.76 38.966 107.743 38.4873 111.777 38.3984C115.127 38.3241 118.462 38.5012 121.793 38.8415C127.095 39.3829 132.315 40.4092 137.531 41.4688C141.671 42.303 145.821 43.086 149.98 43.8176C152.326 44.2344 154.701 44.4401 157.087 44.3852C159.4 44.3326 161.67 44.0395 163.79 43.0318C165.37 42.2816 166.635 41.178 167.531 39.6675C167.552 39.6327 167.572 39.5964 167.596 39.5631C167.607 39.5476 167.626 39.5376 167.673 39.4997C167.474 40.3953 167.076 41.1586 166.538 41.8508C165.338 43.3991 163.718 44.3257 161.895 44.9382C160.338 45.461 158.727 45.6961 157.095 45.8075C156.978 45.8152 156.837 45.8276 156.752 45.8949C155.609 46.8106 154.269 47.277 152.865 47.5809C150.636 48.0627 148.384 48.0449 146.128 47.8052C142.197 47.3875 138.448 46.2182 134.7 45.0457C131.024 43.8949 127.362 42.6977 123.666 41.6134C120.374 40.6466 116.998 40.0589 113.573 39.7905C110.379 39.5425 107.169 39.6176 103.99 40.0148C100.589 40.4363 97.256 41.1362 94.0487 42.3659C91.7092 43.263 89.4888 44.3875 87.5754 46.0287C86.9188 46.5925 86.3612 47.2715 85.7579 47.898C85.7231 47.9336 85.6899 47.9707 85.662 48.0001C83.8538 45.0349 81.3001 42.9042 78.2761 41.2924C75.587 39.8585 72.6953 39.0496 69.7053 38.5561C66.8531 38.0844 63.9768 37.9096 61.0897 37.9421C58.0402 37.9761 55.0046 38.2205 51.9853 38.6598C47.3449 39.3342 42.7881 40.3597 38.4122 42.0643C36.6025 42.7688 34.8608 43.652 33.0913 44.4618C30.7865 45.519 28.406 46.3272 25.8801 46.6397C23.9807 46.8748 22.0982 46.8477 20.2529 46.2267C19.867 46.0975 19.4215 46.1432 19.0039 46.1145C16.7425 45.9599 14.5205 45.608 12.3991 44.7719C11.0015 44.2213 9.71074 43.4958 8.68136 42.3767C8.45475 42.1292 8.26372 41.85 8.05491 41.5848L8.11059 41.5213Z" fill="#17292E"/>
<path d="M5.67207 32.976C6.20571 32.9404 6.80741 32.9644 7.3805 32.8476C8.51352 32.6179 9.32945 31.9072 9.77493 30.8647C10.6442 28.8322 10.8979 26.7146 10.3302 24.5561C10.0085 23.3341 9.36039 22.3155 8.04794 21.959C7.16008 21.7177 6.25366 21.8012 5.37972 22.0843C3.76488 22.6102 2.77106 23.7726 2.27764 25.3364C1.1392 28.9459 1.89713 32.2127 4.20726 35.1531C4.9358 36.0812 5.81128 36.8538 6.86387 37.4068C8.56225 38.3001 10.3264 38.3326 12.116 37.7541C14.7162 36.9134 16.8987 35.488 18.3109 33.0858C20.1152 30.0201 20.2854 26.9041 18.3975 23.8036C16.2854 20.3333 13.1825 18.1145 9.34105 16.9404C7.19798 16.2854 5.09744 16.6497 3.1013 17.6381L2.86928 17.7548C3.52822 16.3604 5.38359 14.9985 7.15389 14.5731C6.85846 14.2529 6.54987 13.918 6.23897 13.5847C5.24438 12.5174 4.40679 11.3473 3.89094 9.97293C2.81592 7.10828 3.75637 3.88167 6.2003 2.00464C7.73471 0.82676 9.43386 0.167054 11.4014 0.330241C13.1872 0.477959 14.7889 1.02784 16.0216 2.40681C16.0796 2.47177 16.2583 2.48801 16.3542 2.45321C17.6226 2.00309 18.9296 1.76025 20.2738 1.76566C20.8136 1.76798 21.3534 1.84996 21.8724 1.89405C20.8322 3.1918 19.7796 4.44548 18.7943 5.75019C17.8092 7.0598 16.9797 8.47948 16.3225 9.98067C16.3016 9.66512 16.2838 9.34958 16.2591 9.03326C16.1431 7.61408 15.8848 6.22429 15.1995 4.95824C14.4694 3.60944 13.4354 2.58005 11.9381 2.08353C10.348 1.55607 7.71383 2.86466 7.74322 5.23975C7.76333 6.86388 8.45629 8.17865 9.48568 9.36195C10.3882 10.3998 11.5568 11.0905 12.6868 11.8376C14.5607 13.0766 16.4145 14.3442 18.2691 15.6094C18.4393 15.7254 18.5769 15.7254 18.751 15.6551C20.3944 14.9869 21.28 13.737 21.5561 12.0162C21.5785 11.877 21.5978 11.737 21.6187 11.5963L21.6999 11.587C21.8252 12.2367 21.9706 12.8824 22.0711 13.536C22.1988 14.3705 22.2181 15.2088 22.0603 16.0456C21.9281 16.7463 21.6667 17.3805 21.1322 17.9033C21.181 17.9706 21.222 18.0379 21.2722 18.0974C23.0108 20.1539 23.9459 22.5205 23.9714 25.2189C23.9915 27.3024 23.4037 29.2483 22.4633 31.0858C20.8623 34.2135 18.546 36.6543 15.389 38.2506C13.7803 39.0642 12.0789 39.4973 10.2591 39.4184C8.02396 39.3217 6.05954 38.5197 4.34879 37.1121C1.96209 35.1462 0.521256 32.6203 0.0773269 29.5568C-0.590113 24.9528 2.645 20.437 7.23587 19.6249C9.83757 19.1647 12.1438 19.8082 13.7865 21.9853C15.1786 23.8299 15.6001 25.9428 14.9381 28.1841C14.4772 29.7432 13.3913 30.7618 11.843 31.2676C11.6312 31.3314 11.4479 31.4663 11.324 31.6497C10.2158 33.1872 8.38823 33.768 6.41839 33.2189C6.14461 33.1415 5.87702 33.0433 5.67207 32.976Z" fill="#17292E"/>
<path d="M21.3464 7.72388H30.1167C29.6906 8.31166 29.7865 8.9528 29.9713 9.54832C30.2577 10.4657 30.5925 11.3672 30.9744 12.249C32.8221 16.5367 34.6906 20.8159 36.5529 25.0982C36.5846 25.1709 36.6218 25.2421 36.6929 25.3898C36.7076 25.232 36.7215 25.1492 36.7215 25.0657C36.7231 21.4462 36.7246 17.8252 36.7215 14.2049C36.72 12.7935 36.5823 11.4014 36.092 10.0642C35.7664 9.17709 35.3139 8.37044 34.5197 7.73935H41.1825C40.8778 7.94043 40.4601 8.14924 40.1268 8.45087C39.3542 9.15156 39.0069 10.1028 38.7424 11.0804C38.443 12.2113 38.295 13.3769 38.3023 14.5468C38.3054 19.1407 38.2954 23.7363 38.3124 28.3302C38.3147 28.9922 38.3758 29.6674 38.5158 30.3124C38.8453 31.8229 39.6001 33.0224 41.2498 33.5452H32.9149C33.7958 32.8786 33.7935 31.9706 33.6844 31.0348C33.6667 30.8822 33.6271 30.7329 33.5668 30.5916C31.638 26.1376 29.7068 21.6852 27.7741 17.2328C27.7491 17.1663 27.6992 17.1122 27.6349 17.082V17.4277C27.6349 21.6017 27.6627 25.7757 27.6225 29.9489C27.604 31.8863 28.7246 32.942 30.1755 33.4315C30.2621 33.4609 30.3503 33.4857 30.5181 33.5367H22.5823C23.9914 33.0394 24.6411 31.9342 25.085 30.6581C25.1376 30.5073 25.1585 30.3387 25.1624 30.1786C25.1716 29.6759 25.1647 29.1732 25.1655 28.6705C25.1709 24.7223 25.1786 20.7741 25.1817 16.8252C25.1825 15.6458 25.1724 14.4671 25.1647 13.2877C25.1585 12.2544 24.7733 11.3496 24.1979 10.5158C23.5282 9.54368 22.6836 8.74012 21.7478 8.02782C21.6364 7.94197 21.5243 7.85767 21.3464 7.72388Z" fill="#17292E"/>
<path d="M77.7378 9.22428C78.0719 9.27996 78.3921 9.31322 78.703 9.38824C81.051 9.95127 82.5854 11.6775 82.9195 14.0719C83.1647 15.8237 83.273 17.5769 83.092 19.3387C82.9528 20.6937 82.6775 22.0147 81.9103 23.1756C80.901 24.7061 79.3983 25.0402 77.8252 24.7339C77.7973 24.7285 77.7726 24.7061 77.7378 24.686V9.22428ZM77.9443 25.9992C78.9652 26.208 79.9922 26.2784 81.0332 26.1848C83.7672 25.9358 85.7649 24.6234 86.918 22.1137C88.3202 19.0595 88.3178 15.9474 87.2273 12.809C86.5839 10.9606 85.3913 9.58545 83.6233 8.72234C82.0038 7.93116 80.2645 7.64268 78.4911 7.61871C76.4099 7.59009 74.3263 7.66511 72.2444 7.69141C71.696 7.69914 71.1477 7.69295 70.6001 7.69295C70.6373 7.79736 70.6852 7.8283 70.7339 7.85846C72.1724 8.74787 72.9311 10.0155 72.9257 11.7285C72.9157 14.6009 72.9234 17.4725 72.9234 20.3442C72.9234 24.222 72.9172 28.099 72.9265 31.976C72.9296 33.3797 72.7262 34.679 71.3874 35.5104C74.8182 35.1833 77.7107 36.3271 80.2304 38.5669C80.1894 38.477 80.1394 38.3915 80.0812 38.3117C78.6403 36.2312 77.7919 33.942 77.737 31.3998C77.6983 29.6574 77.7285 27.9118 77.7293 26.1694C77.7293 26.1098 77.7424 26.0503 77.7509 25.9838C77.8229 25.9892 77.8847 25.9868 77.9443 25.9992Z" fill="#17292E"/>
<path d="M51.4949 23.1105C51.4949 23.4299 51.5081 23.6959 51.4926 23.9604C51.3828 25.8475 51.1531 27.716 50.5065 29.5072C50.2335 30.2628 49.884 30.9821 49.2931 31.5505C49.1537 31.6862 49.0014 31.808 48.8383 31.914C48.2003 32.3224 47.7014 32.2698 47.1492 31.7462C46.4191 31.0532 46.0348 30.1576 45.713 29.2357C45.0982 27.4732 44.8082 25.6449 44.6473 23.791C44.4726 21.8196 44.4739 19.8365 44.6512 17.8653C44.8468 15.7153 45.1864 13.5962 46.0603 11.5985C46.3372 10.9666 46.6736 10.3688 47.2041 9.90551C47.266 9.85137 47.3302 9.79955 47.3975 9.7547C47.9891 9.36336 48.3944 9.42446 48.8314 9.98749C49.3751 10.689 49.6202 11.5211 49.7533 12.3719C50.2807 15.764 50.2034 19.1306 49.2119 22.443C48.8252 23.7369 48.4269 24.4848 47.3016 26.0903C49.2645 25.8467 50.4895 24.6805 51.4949 23.1105ZM39.5398 20.5381C39.5576 22.9751 39.8878 25.2659 40.713 27.4701C41.3898 29.2767 42.3186 30.9241 43.8113 32.1994C45.8894 33.9751 48.4532 34.0176 50.5862 32.3123C51.7053 31.4183 52.5181 30.2798 53.1492 29.0099C54.6071 26.0764 55.0935 22.948 54.9659 19.7044C54.877 17.4538 54.4563 15.2721 53.58 13.1893C52.9172 11.6139 52.0371 10.1824 50.7138 9.06328C48.5785 7.25895 45.9559 7.26359 43.8182 9.06637C42.6999 10.0099 41.8956 11.1901 41.2691 12.4948C40.0355 15.0664 39.5692 17.8034 39.5398 20.5381Z" fill="#17292E"/>
<path d="M68.1841 23.1593C68.1369 25.3202 67.9258 27.4439 67.2026 29.4857C66.9551 30.1856 66.6404 30.8561 66.1237 31.4006C65.9018 31.6349 65.6319 31.8329 65.3596 32.01C64.9087 32.3032 64.4648 32.2243 64.0449 31.9188C63.5762 31.5777 63.2637 31.1098 62.9969 30.6094C62.3302 29.3565 61.9737 28.0008 61.7177 26.6187C61.099 23.2753 61.0572 19.9141 61.4811 16.5483C61.6891 14.9002 62.007 13.2676 62.6953 11.7417C62.9459 11.1871 63.2807 10.6612 63.6419 10.1701C63.826 9.9211 64.1377 9.75018 64.4192 9.59241C64.744 9.40989 65.0472 9.50888 65.3132 9.76487C65.7494 10.1848 65.9838 10.7161 66.164 11.2753C66.5406 12.4462 66.6628 13.6574 66.7154 14.8793C66.8121 17.1206 66.7123 19.3457 66.1585 21.5313C65.744 23.1647 65.1338 24.7053 64.0271 26.0131C64.5406 26.1346 65.6063 25.7347 66.4285 25.116C67.14 24.5808 67.6868 23.8971 68.1841 23.1593ZM71.6535 19.7022C71.5491 17.2629 71.0766 14.9056 70.0418 12.6798C69.3589 11.2127 68.4749 9.89094 67.1787 8.8863C66.2815 8.19179 65.2792 7.75405 64.1284 7.71692C62.5383 7.66743 61.2459 8.33719 60.133 9.40525C58.7146 10.7664 57.8422 12.4632 57.2258 14.3008C56.3967 16.7711 56.1245 19.3148 56.2746 21.9103C56.4045 24.1593 56.8569 26.3356 57.7819 28.3991C58.4687 29.9319 59.3674 31.3179 60.71 32.3697C62.7355 33.9551 65.1377 33.9621 67.174 32.3906C68.3186 31.5073 69.1423 30.3666 69.7943 29.0943C71.1524 26.4447 71.6458 23.6009 71.6551 20.6551C71.6551 20.3372 71.6667 20.0193 71.6535 19.7022Z" fill="#17292E"/>
<path d="M127.447 22.7155C127.447 23.0326 127.461 23.2909 127.446 23.5477C127.334 25.4348 127.131 27.3102 126.453 29.0906C126.213 29.7232 125.828 30.3033 125.486 30.8934C125.386 31.0651 125.217 31.2027 125.06 31.3334C124.276 31.9831 123.67 31.9522 122.964 31.2213C122.389 30.6258 122.054 29.8864 121.767 29.1269C121.156 27.5044 120.855 25.8122 120.665 24.0983C120.449 22.151 120.409 20.1882 120.545 18.2337C120.715 15.782 121.043 13.359 122.072 11.0914C122.26 10.6753 122.532 10.2955 122.781 9.90884C122.868 9.7735 122.994 9.65904 123.114 9.54922C123.824 8.91039 124.392 8.98077 124.916 9.77969C125.417 10.543 125.638 11.4108 125.76 12.2948C126.193 15.4208 126.135 18.5283 125.298 21.5918C124.898 23.0573 124.304 24.434 123.302 25.6034C123.291 25.615 123.296 25.6405 123.288 25.6977C125.206 25.4626 126.442 24.2979 127.447 22.7155ZM130.935 20.9645C130.976 18.4757 130.716 16.277 130.027 14.1401C129.42 12.2569 128.557 10.5121 127.132 9.0991C124.728 6.71395 121.685 6.73096 119.285 9.12307C118.342 10.0627 117.647 11.1672 117.097 12.3682C116.128 14.492 115.659 16.7356 115.533 19.0581C115.386 21.7472 115.694 24.3767 116.606 26.9189C117.258 28.7341 118.172 30.3914 119.633 31.6985C121.679 33.5283 124.234 33.6621 126.378 32.0473C127.326 31.3342 128.064 30.4309 128.662 29.4162C130.244 26.7317 130.838 23.7859 130.936 20.9645H130.935Z" fill="#17292E"/>
<path d="M144.729 15.8337C144.264 14.7424 143.814 13.6109 143.305 12.5058C142.876 11.5738 142.372 10.6782 141.638 9.93886C141.522 9.82285 141.398 9.71458 141.264 9.621C140.691 9.21651 140.155 9.2575 139.654 9.74629C138.98 10.4044 138.644 11.256 138.349 12.1206C137.759 13.8476 137.471 15.6357 137.298 17.4439C137.09 19.6084 137.092 21.7878 137.302 23.952C137.485 25.8414 137.71 27.727 138.42 29.5058C138.633 30.0487 138.925 30.5573 139.286 31.0154C140.074 31.993 141.417 32.085 142.387 31.2861C143.069 30.7246 143.447 29.9652 143.718 29.1485C144.201 27.6991 144.293 26.2351 143.759 24.7803C143.622 24.4285 143.422 24.1048 143.168 23.8252C142.783 23.3905 142.224 23.4099 141.81 23.8236C141.374 24.2575 141.231 24.8252 141.118 25.4029C141.094 25.5236 141.077 25.645 141.056 25.7687C140.29 25.3758 140.12 24.1972 140.531 22.1477C139.419 21.4826 138.883 20.3921 138.409 19.2521C139.472 20.1446 140.697 20.0324 141.933 19.8739C142.959 19.7424 143.985 19.5645 145.014 19.522C146.677 19.4524 147.894 20.2281 148.615 21.7215C148.892 22.2969 149.078 22.9172 149.319 23.5491C148.746 23.4949 148.253 23.4222 147.759 23.4075C147.022 23.3859 147.022 23.4029 146.954 24.126C146.755 26.2335 146.318 28.2792 145.292 30.157C144.455 31.6922 143.293 32.8847 141.583 33.4338C139.124 34.2242 136.811 33.4748 135.093 31.3457C133.865 29.8252 133.136 28.0626 132.626 26.1995C131.926 23.645 131.794 21.0526 132.107 18.4269C132.353 16.3812 132.801 14.3913 133.665 12.5104C134.31 11.1044 135.153 9.84374 136.399 8.88937C137.377 8.14072 138.483 7.70375 139.708 7.60785C141.333 7.48101 142.599 8.20646 143.681 9.34026C143.759 9.42069 143.829 9.5104 143.903 9.59548L144.132 9.86926C145.051 8.5715 146.373 8.06802 147.907 7.85998C146.587 10.4679 145.222 13.0069 144.729 15.8337Z" fill="#17292E"/>
<path d="M86.4756 35.2575C86.5576 35.9265 86.6226 36.5971 86.7254 37.2629C86.911 38.4617 87.2142 39.628 87.7734 40.7146C88.191 41.5274 88.7223 42.2444 89.5731 42.7378C88.1175 43.1639 87.1291 44.1663 86.1539 45.2181C85.5089 44.1121 84.4609 43.4625 83.4377 42.761C84.5514 42.2506 84.9868 41.2305 85.3743 40.1902C85.9497 38.6442 86.2212 37.0294 86.4199 35.3998L86.4354 35.249L86.4756 35.2575Z" fill="#17292E"/>
</svg>
