<?xml version="1.0" encoding="utf-8"?>
<!-- Generator: Adobe Illustrator 26.0.3, SVG Export Plug-In . SVG Version: 6.00 Build 0)  -->
<svg version="1.0" id="Layer_1" xmlns="http://www.w3.org/2000/svg" xmlns:xlink="http://www.w3.org/1999/xlink" x="0px" y="0px"
	 viewBox="0 0 902.8 596" style="enable-background:new 0 0 902.8 596;" xml:space="preserve">
<style type="text/css">
	.st0{fill:#91228F;}
	.st1{fill:#EE1A88;}
</style>
<g id="Page-1">
	<path id="path14" class="st0" d="M428.2,244.4c-4.9,0-8.9,4-8.9,8.9c0,0,0,0,0,0v44.4l-37.1-7.9c-8.7-1.8-12.9-6.5-12.9-14.2v-22.3
		c0-4.9-4-8.9-8.9-8.9c-4.9,0-8.9,4-8.9,8.9c0,0,0,0,0,0v22.3c0,16.2,10.1,28.1,27,31.7l40.9,8.7v4.3c0,4.4,0,13.4-25,13.4
		c-7.9,0-14.9-1.6-21-3c-1.4-0.3-2.7-0.6-3.9-0.9c-4.8-1-9.6,2.1-10.6,6.9s2.1,9.6,6.9,10.6l0,0l3.7,0.8c6.7,1.5,15.1,3.4,25,3.4
		c14,0,24.4-2.6,31.6-7.9c5.1-3.8,11.2-10.9,11.2-23.4v-67C437.1,248.4,433.1,244.4,428.2,244.4z M333,343.7
		c5.1-3.8,11.3-10.9,11.3-23.4c0-22-20-29.1-37.4-32.8c-1.4-0.3-2.9-0.6-4.3-0.9c-15.6-3.1-19-5-19-10.9c0-4.4,0-13.4,25-13.4
		c6-0.2,11.9,0.4,17.8,1.6c4.8,1,9.6-2.1,10.5-7c1-4.8-2.1-9.5-6.8-10.5c-7.1-1.5-14.3-2.1-21.5-2c-14,0-24.4,2.6-31.6,7.9
		c-5.1,3.8-11.3,10.9-11.3,23.4c0,21.8,20.1,25.8,33.4,28.4c1.4,0.3,2.7,0.5,4.1,0.8c23.3,5,23.3,11.5,23.3,15.4
		c0,4.4,0,13.4-25,13.4c-9.1,0-17.2-1.7-23.7-3.1l-1.3-0.3c-4.8-1-9.6,2.1-10.6,6.9s2.1,9.6,6.9,10.6l1.2,0.3
		c6.9,1.5,16.4,3.5,27.4,3.5C315.4,351.5,325.7,349,333,343.7z M233.5,298.2l-37.1,7.9c-8.7,1.8-12.9,6.5-12.9,14.2
		c0,4.4,0,13.4,25,13.4s25-9,25-13.4L233.5,298.2z M208.5,351.5c-14,0-24.4-2.6-31.6-7.9c-5.1-3.8-11.2-10.9-11.2-23.4
		c0-16.2,10.1-28.1,27-31.6l40.8-8.7v-4.3c0-4.4,0-13.4-25-13.4c-9.1,0-17.2,1.7-23.7,3.1l-1.3,0.3c-4.8,1-9.6-2.1-10.6-6.9
		c-1-4.8,2.1-9.6,6.9-10.6l0,0l1.2-0.3c6.9-1.5,16.4-3.5,27.4-3.5c14,0,24.4,2.6,31.6,7.9c5.1,3.7,11.3,10.8,11.3,23.4v44.6
		c0,12.5-6.1,19.6-11.3,23.4C232.9,349,222.5,351.5,208.5,351.5L208.5,351.5z M119.2,262.3c-25,0-25,9-25,13.4v22.1l37.1-7.9
		c8.7-1.8,12.9-6.5,12.9-14.2C144.2,271.3,144.2,262.3,119.2,262.3z M119.2,351.5c-14,0-24.4-2.6-31.6-7.9
		c-5.1-3.7-11.3-10.9-11.3-23.4v-44.6c0-12.5,6.1-19.6,11.3-23.4c7.2-5.3,17.6-7.9,31.6-7.9s24.3,2.6,31.6,7.9
		c5.1,3.8,11.2,10.9,11.2,23.4c0,16.2-10.1,28.1-27,31.7L94.2,316v4.3c0,4.4,0,13.4,25,13.4c9.1,0,17.2-1.7,23.7-3.1l1.3-0.3
		c4.8-1,9.6,2.1,10.6,6.9c1,4.8-2.1,9.6-6.9,10.6l-1.2,0.3C139.7,349.5,130.3,351.5,119.2,351.5z"/>
	<path id="path16" class="st1" d="M798.7,292.4c10.1-10.4,19-22.1,26.4-34.6c2.4-4.3,0.7-9.8-3.6-12.1c-4.2-2.3-9.4-0.9-11.9,3.2
		c-11,19-28.8,38.4-47.6,52.2v-47.7c0-4.9-4-8.9-8.9-8.9c-4.9,0-8.9,4-8.9,8.9v89.3c0,4.9,4,8.9,8.9,8.9c4.9,0,8.9-4,8.9-8.9v-20
		c8.3-5.2,16.1-11.1,23.4-17.6l24.2,42c2.6,4.2,8.1,5.5,12.3,2.9c4-2.5,5.4-7.7,3.2-11.9L798.7,292.4z M662.1,275.7
		c0-4.4,0-13.4,25-13.4s25,9,25,13.4c0,7.7-4.2,12.4-12.9,14.2l-37.1,7.9L662.1,275.7z M706.8,306.3c14.6-4.5,23.2-15.7,23.2-30.6
		c0-12.5-6.1-19.6-11.2-23.4c-7.2-5.3-17.6-7.9-31.6-7.9s-24.3,2.6-31.6,7.9c-5.1,3.8-11.3,10.9-11.3,23.4v67c0,4.9,4,8.9,8.9,8.9
		c4.9,0,8.9-4,8.9-8.9V316l26.4-5.6l21.2,36.7c2.6,4.2,8.1,5.5,12.3,2.9c4-2.5,5.4-7.7,3.2-11.9L706.8,306.3z M608.5,298.2
		l-37.1,7.9c-8.7,1.8-12.9,6.5-12.9,14.2c0,4.4,0,13.4,25,13.4s25-9,25-13.4L608.5,298.2z M583.5,351.5c-14,0-24.3-2.6-31.6-7.9
		c-5.1-3.8-11.2-10.9-11.2-23.4c0-16.2,10.1-28.1,27-31.6l40.9-8.7v-4.3c0-4.4,0-13.4-25-13.4c-9.1,0-17.2,1.7-23.6,3.1l-1.3,0.3
		c-4.8,1-9.6-2.1-10.6-6.9c-1-4.8,2.1-9.6,6.9-10.6l0,0l1.2-0.3c6.9-1.5,16.4-3.5,27.4-3.5c14,0,24.3,2.6,31.6,7.9
		c5.1,3.7,11.3,10.8,11.3,23.4v44.6c0,12.5-6.1,19.6-11.3,23.4C607.9,349,597.5,351.5,583.5,351.5L583.5,351.5z M497.8,262.3
		c-25,0-25,9-25,13.4v22.1l37.1-7.9c8.7-1.8,12.9-6.5,12.9-14.2C522.8,271.3,522.8,262.3,497.8,262.3L497.8,262.3z M463.9,351.5
		c-4.9,0-8.9-4-8.9-8.9v-67c0-12.5,6.1-19.6,11.3-23.4c7.2-5.3,17.6-7.9,31.6-7.9s24.4,2.6,31.6,7.9c5.1,3.8,11.3,10.9,11.3,23.4
		c0,16.2-10.1,28.1-27,31.7l-40.9,8.7v26.6C472.8,347.5,468.8,351.5,463.9,351.5C463.9,351.5,463.9,351.5,463.9,351.5z"/>
</g>
</svg>
